<svg width="33" height="32" viewBox="0 0 33 32" fill="none" xmlns="http://www.w3.org/2000/svg">
<path d="M16.4868 8C15.4678 8 14.4717 8.29325 13.6245 8.84265C12.7772 9.39206 12.1168 10.173 11.7269 11.0866C11.3369 12.0002 11.2349 13.0055 11.4337 13.9755C11.6325 14.9454 12.1232 15.8363 12.8437 16.5355C13.5643 17.2348 14.4823 17.711 15.4817 17.9039C16.4811 18.0969 17.517 17.9978 18.4584 17.6194C19.3999 17.241 20.2045 16.6001 20.7706 15.7779C21.3367 14.9556 21.6389 13.9889 21.6389 13C21.6389 11.6739 21.0961 10.4021 20.1299 9.46447C19.1637 8.52678 17.8532 8 16.4868 8Z" fill="#FFFCF8"/>
<path d="M16.4867 2C13.6335 2 10.8444 2.82109 8.47208 4.35943C6.09976 5.89777 4.25076 8.08427 3.1589 10.6424C2.06704 13.2006 1.78136 16.0155 2.33799 18.7313C2.89461 21.447 4.26854 23.9416 6.28603 25.8995C8.30353 27.8574 10.874 29.1908 13.6723 29.731C16.4707 30.2712 19.3712 29.9939 22.0072 28.9343C24.6432 27.8747 26.8962 26.0803 28.4813 23.778C30.0665 21.4757 30.9125 18.7689 30.9125 16C30.9081 12.2883 29.3869 8.72977 26.6825 6.10518C23.978 3.48059 20.3113 2.00423 16.4867 2V2ZM24.7218 24.926C24.7012 23.6143 24.1506 22.363 23.1884 21.4416C22.2263 20.5202 20.9296 20.0025 19.5779 20H13.3954C12.0437 20.0025 10.7471 20.5202 9.78491 21.4416C8.82275 22.363 8.27209 23.6143 8.25155 24.926C6.38295 23.3067 5.06522 21.1749 4.47284 18.8127C3.88045 16.4505 4.04136 13.9693 4.93426 11.6979C5.82716 9.42637 7.40993 7.47167 9.47298 6.09257C11.536 4.71347 13.9821 3.97503 16.4872 3.97503C18.9923 3.97503 21.4383 4.71347 23.5014 6.09257C25.5644 7.47167 27.1472 9.42637 28.0401 11.6979C28.933 13.9693 29.0939 16.4505 28.5015 18.8127C27.9091 21.1749 26.5914 23.3067 24.7228 24.926H24.7218Z" fill="#FFFCF8"/>
</svg>
