<svg width="91" height="91" viewBox="0 0 91 91" fill="none" xmlns="http://www.w3.org/2000/svg">
<path d="M45.5 5.05554C37.5009 5.05554 29.6813 7.42757 23.0303 11.8717C16.3792 16.3158 11.1954 22.6323 8.13421 30.0226C5.07307 37.4128 4.27213 45.5448 5.83269 53.3903C7.39325 61.2358 11.2452 68.4423 16.9015 74.0985C22.5577 79.7548 29.7642 83.6067 37.6097 85.1673C45.4551 86.7279 53.5872 85.9269 60.9774 82.8658C68.3677 79.8046 74.6842 74.6208 79.1283 67.9697C83.5724 61.3187 85.9445 53.4991 85.9445 45.5C85.9445 34.7734 81.6834 24.4862 74.0985 16.9014C66.5137 9.31664 56.2265 5.05554 45.5 5.05554ZM76.3895 62.4614H67.2389C65.5088 67.8779 62.9507 72.994 59.6556 77.628C57.224 78.6878 54.6799 79.468 52.0722 79.9536C56.7422 74.8791 60.3365 68.9116 62.6383 62.4108H47.6739V80.4844H43.402V62.4614H28.3617C30.6605 68.9712 34.2549 74.9475 38.9278 80.0294C36.3739 79.5491 33.8813 78.786 31.4961 77.7544C28.1893 73.0816 25.6309 67.922 23.9128 62.4614H14.6106C13.803 60.9882 13.1019 59.4592 12.5125 57.8861H22.6236C21.6762 53.8247 21.1844 49.6703 21.1575 45.5C21.1589 41.6343 21.5656 37.7795 22.3708 33.9986H12.0322C12.5638 32.4301 13.2058 30.9012 13.9533 29.4233H23.5842C25.3913 23.4048 28.1937 17.7315 31.8753 12.6389C34.2099 11.6715 36.6423 10.9596 39.13 10.5155C34.1014 15.9125 30.3064 22.3382 28.0078 29.3475H43.402V10.1111H47.6739V29.4233H63.0681C60.7736 22.4253 56.9875 16.0086 51.9711 10.6167C54.4549 11.0287 56.8871 11.7066 59.2258 12.6389C62.886 17.6947 65.6794 23.3242 67.4917 29.2969H77.0214C77.7689 30.7748 78.4108 32.3037 78.9425 33.8722H68.6797C69.5023 37.6935 69.9175 41.5912 69.9183 45.5C69.9053 49.6948 69.4221 53.8749 68.4775 57.9619H78.5886C77.9632 59.512 77.2283 61.0156 76.3895 62.4614Z" fill="#828282" fill-opacity="0.7"/>
<path d="M60.3423 29.1916L63.6156 25.9183" stroke="#FFFCF8" stroke-linecap="round"/>
<path d="M67 22.2733L70.2733 19" stroke="#FFFCF8" stroke-linecap="round"/>
<path d="M31 54.2733L34.2733 51" stroke="#FFFCF8" stroke-linecap="round"/>
<path d="M17 68.2733L20.2733 65" stroke="#FFFCF8" stroke-linecap="round"/>
<path d="M24 61.2733L27.2733 58" stroke="#FFFCF8" stroke-linecap="round"/>
<path d="M72 17.5C72.8333 16.5 74 13 71.5 14.5" stroke="#FFFCF8"/>
<path d="M15.4686 69.7969C14.4398 70.5943 10.9007 71.6365 12.4882 69.1911" stroke="#FFFCF8"/>
<path d="M57.4511 64.7959L60.7246 68.0694" stroke="#FFFCF8" stroke-linecap="round"/>
<path d="M64.3699 71.4542L67.6434 74.7278" stroke="#FFFCF8" stroke-linecap="round"/>
<path d="M32.368 35.4514L35.6415 38.725" stroke="#FFFCF8" stroke-linecap="round"/>
<path d="M18.3673 21.4504L21.6407 24.724" stroke="#FFFCF8" stroke-linecap="round"/>
<path d="M25.3676 28.4509L28.6411 31.7245" stroke="#FFFCF8" stroke-linecap="round"/>
<path d="M69.1435 76.4544C70.1435 77.2878 73.6437 78.4545 72.1437 75.9543" stroke="#FFFCF8"/>
<path d="M16.8436 19.9189C16.0461 18.89 15.0038 15.3507 17.4494 16.9383" stroke="#FFFCF8"/>
<path d="M56.9003 34.6401L51.6186 59.2494C51.2201 60.9863 50.1809 61.4186 48.7042 60.6003L40.6566 54.7413L36.7735 58.4312C36.3438 58.8557 35.9843 59.2108 35.1561 59.2108L35.7343 51.1132L50.6497 37.7973C51.2982 37.2261 50.5091 36.9096 49.6418 37.4808L31.2027 48.9518L23.2645 46.497C21.5377 45.9644 21.5065 44.791 23.6239 43.9728L54.6735 32.1544C56.1111 31.6218 57.3691 32.4709 56.9003 34.6401Z" fill="#FFFCF8"/>
</svg>
